<?xml version="1.0" encoding="UTF-8"?>
<svg id="Layer_1" xmlns="http://www.w3.org/2000/svg" version="1.1" viewBox="0 0 6000 2000">
  <!-- Generator: Adobe Illustrator 29.4.0, SVG Export Plug-In . SVG Version: 2.1.0 Build 152)  -->
  <defs>
    <style>
      .st0 {
        fill: #042a2b;
      }

      .st1 {
        font-family: MyriadPro-Regular, 'Myriad Pro';
        font-size: 12px;
      }

      .st2 {
        fill: none;
        stroke: #09bc8a;
        stroke-miterlimit: 10;
        stroke-width: 200px;
      }
    </style>
  </defs>
  <g>
    <g id="Layer_3">
      <g>
        <path class="st0" d="M1131.73,1585.39c-18.18-42.97-28.93-88.11-32.09-134.55-11.71.85-23.5,1.28-35.36,1.28-64.96,0-127.93-12.77-187.15-37.96-57.29-24.37-108.78-59.28-153.03-103.77-44.28-44.53-79.05-96.37-103.32-154.08-25.12-59.73-37.86-123.24-37.86-188.77s12.74-129.04,37.86-188.77c24.27-57.71,59.04-109.55,103.32-154.08,44.25-44.49,95.73-79.41,153.03-103.77,59.23-25.19,122.2-37.96,187.15-37.96s127.93,12.77,187.16,37.96c57.29,24.37,108.78,59.28,153.03,103.77,44.29,44.53,79.05,96.37,103.32,154.08,25.12,59.73,37.86,123.24,37.86,188.77,0,11.62-.41,23.17-1.21,34.64,47.71,2.84,94.09,13.67,138.18,32.32,19.61,8.3,38.43,18.01,56.39,29.05,4.41-31.6,6.63-63.65,6.63-96.02,0-92.31-18-181.91-53.51-266.32-34.29-81.52-83.36-154.71-145.86-217.56-62.54-62.88-135.4-112.27-216.56-146.79-84.12-35.78-173.42-53.92-265.43-53.92s-181.31,18.14-265.43,53.92c-81.16,34.52-154.02,83.91-216.56,146.79-62.5,62.84-111.57,136.04-145.86,217.56-35.51,84.41-53.51,174.01-53.51,266.32s18,181.91,53.51,266.32c34.29,81.52,83.36,154.71,145.86,217.56,62.54,62.88,135.4,112.27,216.56,146.79,84.12,35.78,173.42,53.92,265.43,53.92,33.23,0,66.11-2.38,98.53-7.09-11.88-18.94-22.28-38.84-31.08-59.64h0Z"/>
        <path class="st0" d="M1651.55,1314.95c-31.25-38.72-79.07-63.53-132.58-63.53-28.67,0-55.7,7.13-79.43,19.69-10.93,13.65-22.63,26.75-35.08,39.27-11.82,11.89-24.17,23.09-37,33.59-12.02,23.33-18.82,49.77-18.82,77.77,0,54.17,25.42,102.5,64.95,133.72,48.12-28.88,92.53-63.68,132.68-104.05,41-41.22,76.22-86.9,105.28-136.46h0Z"/>
      </g>
    </g>
    <g id="Layer_6">
      <path class="st0" d="M1131.73,1259.79c8.03-18.99,17.38-37.24,27.99-54.69-29.94,12.02-62.2,18.33-95.44,18.33-68.35,0-132.62-26.62-180.95-74.95-48.33-48.33-74.95-112.6-74.95-180.95s26.62-132.62,74.95-180.95,112.6-74.95,180.95-74.95,132.62,26.62,180.95,74.95,74.95,112.6,74.95,180.95c0,33.47-6.4,65.95-18.58,96.07,17.15-10.37,35.08-19.52,53.72-27.4,51.85-21.93,106.86-33.06,163.5-33.08.91-11.79,1.37-23.65,1.37-35.58,0-61.5-12.07-121.22-35.87-177.49-22.97-54.3-55.83-103.05-97.66-144.88s-90.58-74.7-144.88-97.66c-56.27-23.8-115.99-35.87-177.49-35.87s-121.22,12.07-177.49,35.87c-54.3,22.97-103.05,55.83-144.88,97.66-41.84,41.84-74.7,90.58-97.66,144.88-23.8,56.27-35.87,115.99-35.87,177.49s12.07,121.22,35.87,177.49c22.97,54.3,55.83,103.05,97.66,144.88,41.84,41.84,90.58,74.7,144.88,97.66,56.27,23.8,115.99,35.87,177.49,35.87,11.52,0,22.99-.42,34.38-1.27.17-56.24,11.29-110.87,33.07-162.38h-.01Z"/>
    </g>
    <g id="Layer_4">
      <circle class="st2" cx="1518.97" cy="1421.74" r="295.32"/>
    </g>
  </g>
  <text class="st1" transform="translate(1980.45 494.35)"><tspan x="0" y="0"> </tspan></text>
  <g>
    <path d="M2113.51,653.27h109.38v704.59h-109.38v-704.59Z"/>
    <path d="M2324.59,844.19h106.44v77.64h1.95c13.67-26.03,33.69-47.11,60.06-63.23,26.36-16.11,58.91-24.17,97.66-24.17,56.31,0,99.92,17.02,130.86,51.03,30.92,34.02,46.39,80.64,46.39,139.89v332.52h-105.97v-312.02c0-38.73-9.03-68.52-27.09-89.36-18.06-20.83-45.33-31.25-81.78-31.25-24.75,0-46.31,5.55-64.7,16.61-18.41,11.06-32.56,26.53-42.48,46.39-9.94,19.86-14.89,43.3-14.89,70.31v299.31h-106.44v-513.67Z"/>
    <path d="M2885.76,928.18h-70.81v-83.98h70.81v-54.69c0-33.2,5.36-60.62,16.11-82.28,10.73-21.64,27.25-37.75,49.55-48.33s50.86-15.88,85.7-15.88c10.73,0,21.56.41,32.47,1.22s19.77,1.88,26.61,3.17v78.12c-4.88-.64-10.58-1.12-17.08-1.45-6.52-.33-13.03-.5-19.53-.5-23.44,0-40.86,5.62-52.25,16.84-11.41,11.23-17.09,28.25-17.09,51.03v52.73h104v83.98h-102.05v429.69h-106.44v-429.69Z"/>
    <path d="M3166.66,653.27h105.95v704.59h-105.95v-704.59Z"/>
    <path d="M3444.87,1344.93c-26.53-15.47-46.8-37.52-60.8-66.17-14-28.64-21-62.66-21-102.05v-332.52h106.45v312.5c0,38.75,9.03,68.45,27.09,89.11,18.06,20.67,45.33,31,81.8,31,18.88,0,35.72-3.17,50.53-9.52s27.58-15.28,38.33-26.84c10.73-11.56,18.95-25.56,24.66-42,5.69-16.44,8.55-34.58,8.55-54.45v-299.8h105.95v513.67h-105.95v-77.16h-2.44c-8.8,16.94-20.52,31.98-35.16,45.17-14.66,13.19-32.16,23.53-52.5,31.02-20.34,7.47-43.55,11.22-69.58,11.22-37.44,0-69.41-7.73-95.94-23.19Z"/>
    <path d="M3978.2,1348.35c-30.77-13.19-54.94-31.58-72.52-55.17s-28.16-51.03-31.72-82.28l-.5-4.41h104.5l.97,4.89c5.2,23.44,16.77,41.75,34.67,54.94s42.97,19.77,75.2,19.77c21.47,0,39.7-2.67,54.67-8.05s26.53-13.11,34.67-23.2,12.22-22.12,12.22-36.12v-.5c0-16.59-5.38-29.94-16.12-40.03s-29.95-18.55-57.61-25.39l-83.98-19.05c-32.56-7.48-59.66-17.73-81.3-30.77-21.66-13.02-37.84-28.97-48.59-47.84s-16.11-40.69-16.11-65.44v-.48c0-30.92,8.3-58.02,24.91-81.3,16.59-23.27,39.88-41.33,69.83-54.19,29.94-12.86,64.61-19.3,104-19.3s75.19,6.84,104.48,20.52,52.17,32.31,68.61,55.91,25.47,49.88,27.09,78.84v5.86h-99.11l-.5-3.41c-2.94-22.47-13.02-40.78-30.27-54.94s-40.69-21.23-70.31-21.23c-18.89,0-35.33,2.77-49.33,8.3s-24.73,13.44-32.22,23.69c-7.5,10.25-11.23,22.22-11.23,35.88v.5c0,10.42,2.52,19.86,7.56,28.33s13.27,15.78,24.67,21.97c11.39,6.19,26.03,11.39,43.94,15.61l83.98,19.53c52.41,12.06,89.61,29.06,111.58,51.03s32.95,51.52,32.95,88.62v.48c0,31.25-8.95,58.77-26.86,82.53s-42.56,42.31-73.97,55.66-67.3,20.02-107.66,20.02c-42.97,0-79.84-6.59-110.61-19.77Z"/>
    <path d="M4368.24,653.27h105.95v275.39h2.44c13.34-29.94,33.61-53.14,60.8-69.58,27.17-16.44,59.97-24.66,98.39-24.66s68.75,8.55,95.94,25.64,48.34,41.09,63.48,72.02c15.12,30.94,22.7,67.06,22.7,108.39v317.39h-105.95v-297.36c0-42.64-10.27-75.84-30.77-99.61-20.52-23.77-49.33-35.66-86.42-35.66-24.09,0-45.17,5.7-63.23,17.09-18.06,11.41-32.14,27.19-42.23,47.38-10.09,20.19-15.14,43.78-15.14,70.8v297.36h-105.95v-704.59Z"/>
    <path d="M4918.67,747.27c-12.05-11.88-18.06-26.12-18.06-42.73s6.02-31.73,18.06-43.45c12.03-11.72,26.52-17.58,43.45-17.58s31.81,5.86,43.7,17.58c11.88,11.72,17.83,26.2,17.83,43.45s-5.95,30.86-17.83,42.73c-11.89,11.88-26.45,17.81-43.7,17.81s-31.42-5.94-43.45-17.81ZM4908.9,844.19h106.44v513.67h-106.44v-513.67Z"/>
    <path d="M5108.26,844.19h106.44v87.89h2.44c10.09-20.19,23.03-37.59,38.81-52.25,15.78-14.64,33.94-25.88,54.45-33.69,20.5-7.81,42.97-11.72,67.39-11.72,43.61,0,81.53,10.83,113.77,32.47,32.22,21.66,57.12,52.41,74.7,92.28s26.38,87.16,26.38,141.84v.5c0,54.69-8.88,101.89-26.62,141.61s-42.56,70.47-74.47,92.28-69.33,32.7-112.3,32.7c-24.09,0-46.62-3.91-67.62-11.72s-39.47-18.95-55.42-33.44-29.14-31.66-39.55-51.52h-1.95v257.31h-106.44v-684.56ZM5421.73,1255.57c20.19-14.16,35.64-34.41,46.39-60.78,10.73-26.38,16.11-57.45,16.11-93.27v-.5c0-36.45-5.38-67.86-16.11-94.23-10.75-26.36-26.2-46.55-46.39-60.55s-44.11-21-71.78-21-50.3,7.25-70.8,21.73c-20.52,14.5-36.55,34.84-48.09,61.05-11.56,26.2-17.33,57.2-17.33,93v.5c0,35.48,5.86,66.33,17.58,92.53s27.75,46.55,48.09,61.03,43.86,21.72,70.55,21.72,51.59-7.08,71.78-21.23Z"/>
  </g>
</svg>